<svg version="1.1" id="avatar" xmlns="http://www.w3.org/2000/svg" xmlns:xlink="http://www.w3.org/1999/xlink" x="0px" y="0px"
	 width="313%" height="265%" viewBox="0 0 2138.401 1654.878" style="enable-background:new 0 0 2138.401 1654.878;"
	 xml:space="preserve">
	 <defs>
	 <style>
	    .stroke {
			stroke-dasharray: 2000;
			stroke-dashoffset: 2000;
			-webkit-animation: dash 100s linear forwards;
			-o-animation: dash 100s linear forwards;
			-moz-animation: dash 100s linear forwards;
			animation: dash 100s linear forwards;
			animation-delay: 5s;
			fill: none;
		}
		@-webkit-keyframes dash {
			from {
				stroke-dashoffset: 2000;
			}
			to {
				stroke-dashoffset: 0;
			}
		}

		.shape {
			stroke-dasharray: 13000;
			stroke-dashoffset: 13000;
			-webkit-animation: shaper 50s linear forwards;
			-o-animation: shaper 50s linear forwards;
			-moz-animation: shaper 50s linear forwards;
			animation: shaper 50s linear forwards;
			fill: none;
		}
		@-webkit-keyframes shaper {
			from {
				stroke-dashoffset: 13000;
			}
			to {
				stroke-dashoffset: 0;
			}
		}

		.face{
			
			opacity: 1;
		}

	</style>
	</defs>


<g id="Layer_4">
	<path class="shape" id="shape" style="fill:none;stroke:#000000;stroke-miterlimit:10;" d="M1810.04,1319.062c0,0.803,0,1.606,0,2.414
		c-7.499,0-14.992,0-24.614,0c0.732,14.796,5.774,30.864-9.556,44.393c-0.03,0.036,21.319,221.103-460.372,173.528
		c-481.692-47.574-771.105-166.511-907.882-122.903c-136.777,43.608-49.555,107.042-49.555-7.927s14.046-99.121,14.046-99.121
		c14.136-26.909,38.262-40.034,65.653-46.938c10.924-22.408,91.236-57.797,117.301-51.767c-2.194,5.287-4.323,10.419-7.35,17.722
		c10.698-4.74,19.083-8.456,27.962-12.387c-0.624-3.955-1.154-7.303-1.838-11.62c18.286-16.009,41.318-2.408,61.847-7.606
		c-10.883,5.483-21.765,10.96-38.422,19.351c35.598,6.553,45.047-12.09,53.973-36.769c50.191,34.801,78.391-39.493,129.617-20.1
		c-3.289-7.909-4.21-10.139-5.322-12.809c20.439-16.354,43.537-26.999,70.024-29.354c-9.277-40.296,25.369-74.632,6.405-115.921
		c-11.715-25.512-33.718-39.047-48.472-60.164c-23.686-33.903-41.872-70.071-52.528-110.444c-7.136,0-13.238,0-20.653,0
		c3.128-9.675,5.858-18.114,8.843-27.343c-4.882-1.279-8.207-2.153-7.231-1.897c-32.339-39.939-48.264-84.171-65.338-128.047
		c-5.394-13.856-11.346-27.956-8.361-41.616c5.804-26.606,23.478-1.172,36.793-7.79c15.444-29.776,4.971-61.954-2.95-92.818
		c-29.122-113.418-1.737-211.35,73.342-299.666c32.922-38.726,59.89-82.506,88.726-122.825c7.16,0.601,10.621,0.892,11.644,0.975
		c21.444-13.612,41.003-26.029,61.966-39.332c0-2.194,0-5.697,0-9.2l-0.143,0.018c3.883,0.999,7.766,2.004,13.481,3.473
		c31.655-28.979,66.259-33.272,103.225-6.119c-2.307-2.878-4.615-5.757-5.673-7.083c-5.114-14.897,14.13-10.502,12.916-22.301
		c11.846,1.017,23.091,1.98,35.526,3.045c-1.047,5.037-1.635,7.868-2.063,9.943c5.531,4.329,10.782,8.439,15.7,12.286
		c9.467-2.432,3.794-9.36,4.716-15.706c3.752,0.815,6.708,1.463,10.573,2.301c-2.016,6.916-3.562,12.203-5.59,19.167
		c15.259-1.707,15.271,21.385,31.905,17.65l-0.048,0.006c1.35,2.795,2.7,5.59,4.698,9.723c8.896-4.317,17.127-8.308,25.625-12.435
		c3.812,4.639,6.553,7.975,9.824,11.959c9.004,0.601,18.661,7.106,26.767-1.945c24.221,7.927,47.884,14.498,70.636,23.389
		c34.985,13.672,43.81,51.505,65.968,77.005c31.352,36.073,54.627,79.289,80.425,120.042
		c43.584,68.846,30.507,139.732,10.787,212.979c-14.439,53.634-41.651,103.576-47.699,160.058
		c-10.681-6.137-10.675-19.47-11.781-29.49c-7.047-63.75-25.571-129.861-15.408-191.053
		c16.788-101.06-30.174-166.291-95.101-227.192c-33.284-31.221-76.696-27.236-118.181-21.617
		c-73.17,9.913-148.771-3.461-220.133,24.293c-49.59,19.286-93.21,47.063-128.6,86.693c-18.209,20.386-13.927,42.609-3.069,66.265
		c14.171,30.87-0.517,62.775-13.392,87.382c-24.025,45.921-21.742,94.15-26.927,141.938c-3.396,31.298-3.342,62.971-4.787,93.484
		c39.059,41.64,54.562,100.465,32.826,123.034c3.033,32.297,29.443,42.484,53.313,57.434c4.151-5.828,7.475-10.49,11.257-15.789
		c6.827,16.633,23.454,15.753,36.216,20.838c3.604,6.143,6.976,11.894,10.657,18.167c-3.348,2.664-10.193,4.781-5.12,11.911
		c21.938,3.467,22.663,22.14,28.063,37.667c3.318,7.041,6.631,14.076,10.853,23.038c5.804,3.033,13.553,7.089,24.204,12.661
		c3.616-6.101,7.309-12.34,10.472-17.68c18.804,12.613,39.231,17.953,45.136,41.277c5.691-0.375,11.798-0.773,11.192-0.737
		c41.473,23.865,80.419,9.997,119.483,11.739c23.424-13.25,48.223-27.284,73.027-41.313c23.145-11.537,43.543-30.168,69.298-33.415
		c7.285-6.583,13.88-12.554,27.135-24.537c-5.994,16.211-8.891,24.043-11.786,31.869l0.155-0.071
		c-11.299,12.97-7.885,37.614-31.369,39.558c-10.163,20.98-39.457,22.735-44.47,47.485c0,3.955,0,7.903,0,13.035
		c-17.834,7.725-26.749,25.089-38.761,40.397c-41.402,53.432-109.118,46.463-167.611,66.866
		c9.711,20.195-7.208,46.528,19.161,55.948c22.871,8.171,36.722-7.321,48.823-35.021c106.281-45.707,222.512-92.17,261.13-236.059
		c-2.504,19.398-2.367,31.958-6.06,43.269c-3.907,11.965-10.793,23.169-17.615,33.921c-6.72,10.591-13.731,21.599-22.913,29.871
		c-11.144,10.044-4.918,24.477-15.188,38.107c6.643-4.49,9.658-6.524,13.814-9.336c1.838,4.353,3.295,7.802,5.09,12.054
		c-4.448,1.296-7.713,2.248-10.877,3.17c-0.874,6.203-1.659,11.804-2.64,18.768c-8.468-5.709-15.289-10.306-21.914-14.772
		c-8.682,11.662-15.997,21.492-23.413,31.447c3.39,11.793,11.269,18.358,22.241,24.828c24.346-28.771,48.841-56.191,71.362-85.146
		c8.147-10.472,17.168-12.405,27.058-8.962c9.42,3.277,12.227,12.732,11.186,21.516c-16.366,9.961-31.56,19.208-48.181,29.324
		c2.89,19.969,15.747,27.855,34.599,28.384c5.709-6.958,10.199-12.435,15.634-19.06c-3.033-4.43-6.191-9.051-10.52-15.384
		c5.673,1.195,9.342,1.968,13.339,2.807c3.182-2.426,6.31-4.805,9.735-7.422c10.978,0.607,16.847,7.541,22.14,17.43
		c-4.371,7.719-8.819,15.581-13.428,23.716c-6.494,0-11.816,0-18.976,0c3.318,4.609,5.519,7.666,6.417,8.914
		c-2.295,34.313-41.063,41.806-47.652,72.26c-6.488,1.992-11.953,5.626-13.297,13.428c-5.281,1.618-10.234,3.128-13.63,4.169
		c-5.406,7.327-10.003,13.559-15.563,21.099c1.838,2.611,4.454,6.322,8.54,12.131c-26.612,3.943-41.045,19.91-47.914,45.101
		c4.252,0.981,7.19,1.659,10.472,2.42c4.971,8.308,5.15,16.348-2.099,23.865c-1.986-8.67-4.555-7.891-9.402,2.07
		c4.769-1.189,7.231-1.808,9.693-2.42c-0.785,3.402-1.564,6.809-2.759,11.983c-6.072-2.385-10.906-4.282-16.883-6.631
		c2.064-5.132,3.616-8.991,5.174-12.851c-7.594,11.43-24.536,14.974-27.028,33.35c9.812,6.714,20.148,13.779,31.161,21.319
		c-0.934,3.366-1.98,7.136-2.997,10.805c-15.01-0.791-11.02,10.425-13.951,18.834c10.484,1.386,19.381,2.563,30.561,4.044
		c3.532-12.31,7.071-24.65,11.097-38.666c-7.327-0.856-12.964-1.522-20.451-2.397c25.024-98.045,107.869-158.536,153.095-242.975
		c8.932,0.803,16.83,1.516,24.352,2.194c11.21-6.875,1.261-18.661,7.951-27.552c3.812,0.404,8.492,0.904,13.119,1.421
		c-2.533,3.092-5.019,6.161-9.836,12.108c10.151-4.526,10.151-4.526,9.676-12.108c12.233-4.96,21.147,2.379,25.262,11.162
		c5.965,12.732,27.141,18.774,18.031,39.469c2.843,1.213,6.298,2.694,11.15,4.763c-4.555,12.173-14.124,5.596-21.438,8.01
		c1.707-26.903-24.513-19.012-37.037-36.038c3.788,20.534,18.162,22.223,30.043,32.065c-20.992,33.124-56.055,59.165-60.408,103.582
		c1.742,3.586,4.187,8.599,7.005,14.397c4.746-0.833,11.644-5.001,11.46,3.83c8.034-1.897,15.158-3.58,20.861-4.924
		c4.109-11.495,7.671-21.474,11.251-31.429c-1.79-7.862-8.207-10.151-15.777-12.072c0.416-3.187,0.791-6.101,1.35-10.359
		c4.079,2.04,6.97,3.485,10.793,5.394c2.057-10.449,2.866-21.551,13.047-24.114c6.203-12.256,11.465-22.651,17.531-34.64
		c8.159-0.464,17.287-0.981,26.416-1.499l-0.262-0.131c10.478,17.044-9.158,33.879,1.041,52.802
		c7.85,2.486,17.49,5.542,27.474,8.706c5.459-12.613,10.169-23.484,15.706-36.27c-0.345-1.219-1.302-4.585-2.402-8.48
		c3.449-2.153,6.643-4.145,11.275-7.029c-6.161-2.979-11.002-5.322-19.28-9.331c38.226-10.805,53.747,34.17,96.707,23.621
		c-5.132,2.849-0.083,0.048,6.666-3.699c1.368,0.535,4.561,1.796,9.176,3.61c-4.121,4.775-7.362,8.528-11.822,13.69
		c7.63,6.161,15.01,12.125,23.573,19.042c-7.79,5.198-13.88,9.265-19.922,13.297c0.387,4.93,0.696,8.867,0.672,8.599
		c-4.847,15.61-8.522,27.433-12.714,40.944c10.157,0,17.864,0,27.516,0c7.808-9.515,19.904-3.271,32.244-2.022
		c-1.945-6.625-3.295-11.234-5.531-18.84c8.082,2.551,13.428,4.24,18.935,5.977c3.289,26.327-25.292,43.013-18.358,73.241
		c13.392-14.374,20.344-28.235,22.295-46.457c21.795-5.156,38.922-19.719,58.32-38.684c-0.167,0.541,1.332-4.294,2.991-9.658
		c-4.543,0-9.182,0-14.742,0c0.387-5.774-13.565-4.466-5.881-13.981c0.565-0.345,1.112-0.69,1.13-0.696
		c-0.012,0.018-0.434,0.494-0.856,0.969c-18.209,3.306-29.163-11.15-43.887-18.114c-3.758,0.66-7.987,1.403-13.416,2.361
		c0.523-5.982,0.993-11.305,1.481-16.841c0,0-226.911-106.169-316.907-181.165c-89.995-74.996-31.498-28.499-31.498-28.499
		l-7.5-35.998c0,0,140.993,116.994,254.987,163.492s215.989,73.496,215.989,73.496s11.999,46.498,11.999,46.498
		c25.455,12.179,91.275,52.084,60.87,93.393c-17.372,23.601-37.391-9.686-12.872-16.897c25.499-7.5,76.496,65.997,16.257,93.12"/>
</g>
<g id="Layer_3">
	<g id="pattern" class="stroke">
		<path style="fill:none;stroke:#000000;stroke-miterlimit:10;" d="M653.742,1583.945c15.277,0,30.561,0,45.838,0
			c0,0,0-0.001,0-0.001L653.742,1583.945C653.742,1583.945,653.742,1583.945,653.742,1583.945z"/>
		<path style="fill:none;stroke:#000000;stroke-miterlimit:10;" d="M631.786,1561.776c-1.588,7.689-3.086,14.927-4.585,22.17
			l26.541,0c0.821-6.987,1.641-13.975,2.605-22.169C647.86,1561.776,640.593,1561.776,631.786,1561.776z"/>
		<path style="fill:none;stroke:#000000;stroke-miterlimit:10;" d="M1143.491,1583.939c-0.803,0-1.606,0-2.415,0
			c-2.414,0-4.823,0-7.237,0s-4.823,0-7.237,0c-1.606,0-3.217,0-4.823,0c-15.277,0-30.561,0-45.838,0c-1.606,0-3.217,0-4.823,0
			c-19.303,0-38.601,0-57.904,0c-12.869-6.755-25.732-13.214-38.601,0c-12.06,0-24.126,0-36.186,0
			c-1.879-3.657-3.758-7.309-7.005-13.612c-4.686,6.452-7.285,10.032-9.884,13.612c-15.277,0-30.561,0-45.838,0
			c2.075-3.229,4.151-6.458,6.637-10.342c-10.526-10.246-22.943-8.07-37.019-10.336c0.547,7.939,0.993,14.308,1.433,20.677
			c-13.672,0-27.343,0-41.015,0c-1.237-3.818-2.474-7.63-3.717-11.448l0.244,0.119c-6.773-7.999-14.837-9.455-24.435-5.174
			c-1.201,5.72-2.331,11.113-3.461,16.507l376.361-0.004C1148.314,1583.939,1145.906,1583.939,1143.491,1583.939z"/>
		<path style="fill:none;stroke:#000000;stroke-miterlimit:10;" d="M728.529,1583.945c15.277,0,30.561,0,45.838,0
			c0,0,0-0.001,0-0.002L728.529,1583.945C728.529,1583.944,728.529,1583.945,728.529,1583.945z"/>
		<path style="fill:none;stroke:#000000;stroke-miterlimit:10;" d="M723.361,1570.422c-0.815-14.082-9.973-7.202-18.197-8.088
			c-1.921,7.433-3.752,14.521-5.584,21.61l28.949,0c1.433-6.625,2.866-13.249,5.958-27.521
			C727.381,1565.361,725.579,1567.633,723.361,1570.422z"/>
		<path style="fill:none;stroke:#000000;stroke-miterlimit:10;" d="M550.535,1227.345l0.323,0.477
			c0.039-0.004,0.079-0.003,0.117-0.008L550.535,1227.345z"/>
		<path style="fill:none;stroke:#000000;stroke-miterlimit:10;" d="M550.969,1227.987l-0.111-0.165
			c-0.329,0.03-0.672,0.034-1.013,0.034C550.219,1227.898,550.594,1227.945,550.969,1227.987z"/>
		<path style="fill:none;stroke:#000000;stroke-miterlimit:10;" d="M513.349,1282.614c-0.065,0.081-0.13,0.163-0.194,0.244
			c0.156,0.022,0.301,0.033,0.462,0.06c0.387-0.535,0.767-1.071,1.154-1.606C514.354,1281.8,513.855,1282.21,513.349,1282.614z"/>
		<path style="fill:none;stroke:#000000;stroke-miterlimit:10;" d="M503.65,1294.787c4.305-5.402,6.917-8.686,9.505-11.93
			C506.023,1281.853,503.819,1285.535,503.65,1294.787z"/>
		<path style="fill:none;stroke:#000000;stroke-miterlimit:10;" d="M529.289,1238.046c3.559-5.655,7.219-11.475,17.143-27.239
			C532.865,1224.771,522.605,1226.734,529.289,1238.046z"/>
		<path style="fill:none;stroke:#000000;stroke-miterlimit:10;" d="M529.674,1238.052c-0.121,0.011-0.242,0.022-0.364,0.033
			c-0.008-0.013-0.014-0.026-0.022-0.039c-0.058,0.092-0.116,0.185-0.174,0.277C529.302,1238.232,529.489,1238.141,529.674,1238.052
			z"/>
		<path style="fill:none;stroke:#000000;stroke-miterlimit:10;" d="M529.685,1238.049c4.405-2.133,2.424-1.174-0.011,0.003
			C532.375,1237.808,534.756,1237.588,529.685,1238.049z"/>
		<path style="fill:none;stroke:#000000;stroke-miterlimit:10;" d="M584.116,1484.538l0.601-0.517
			c2.408,10.734,4.823,21.462,8.409,37.441c3.39-16.062,5.655-26.802,8.26-39.136c-6.756,0.684-11.781,1.189-16.847,1.713
			L584.116,1484.538z"/>
		<path style="fill:none;stroke:#000000;stroke-miterlimit:10;" d="M562.922,1337.949c-5.479,6.132-9.956,11.138-14.426,16.142
			c0,0.005,0,0.01-0.001,0.016c0.761,4.377,1.522,8.754,2.242,12.869c5.84-0.452,9.652-0.743,14.528-1.124
			c3.443-8.831,6.88-17.638,14.415-36.965c-10.359,12.31-13.261,15.765-16.758,19.916
			C562.922,1345.032,562.922,1342.053,562.922,1337.949z"/>
		<path style="fill:none;stroke:#000000;stroke-miterlimit:10;" d="M548.534,1353.234
			C548.61,1351.539,548.658,1350.411,548.534,1353.234L548.534,1353.234z"/>
		<path style="fill:none;stroke:#000000;stroke-miterlimit:10;" d="M548.501,1353.994c0.012-0.281,0.023-0.532,0.033-0.759
			c-0.011,0.248-0.023,0.506-0.035,0.767C549.019,1351.879,549.505,1349.865,548.501,1353.994z"/>
		<path style="fill:none;stroke:#000000;stroke-miterlimit:10;" d="M548.471,1354.119c0.008-0.009,0.016-0.018,0.024-0.027
			c0.001-0.03,0.003-0.059,0.004-0.089C548.49,1354.041,548.481,1354.08,548.471,1354.119z"/>
		<path style="fill:none;stroke:#000000;stroke-miterlimit:10;" d="M595.409,1406.95c-3.199,12.578-5.905,23.222-9.039,35.508
			c12.411-2.159,24.471,8.314,32.196-2.539c3.717-9.372,6.583-16.609,10.294-25.964
			C618.001,1411.684,607.273,1409.436,595.409,1406.95z"/>
		<path style="fill:none;stroke:#000000;stroke-miterlimit:10;" d="M867.024,1493.001c-1.986,11.245-3.842,21.759-5.911,33.51
			c9.182,1.534,17.246,2.878,25.393,4.24c6.851-10.621,10.674-21.177,8.29-32.82C886.488,1488.856,876.86,1493.875,867.024,1493.001
			z"/>
		<path style="fill:none;stroke:#000000;stroke-miterlimit:10;" d="M639.172,1519.298c10.026,1.189,17.924,2.129,28.313,3.36
			c2.569-11.727,5.192-23.71,10.657-48.722c-8.605,14.796-10.341,17.787-12.488,21.48c-1.463-4.05-2.474-6.845-3.58-9.89
			c-4.989,0.286-9.271,0.529-16.152,0.928C643.691,1497.318,641.479,1508.076,639.172,1519.298z"/>
		<path style="fill:none;stroke:#000000;stroke-miterlimit:10;" d="M743.443,1521.759c1.992-11.793,3.842-22.741,8.195-48.556
			c-7.618,15.313-8.807,17.698-9.194,18.477c-6.892-3.449-12.696-6.357-21.45-10.746c-2.492,14.694-4.633,27.325-6.916,40.825
			C725.424,1521.759,733.958,1521.759,743.443,1521.759z"/>
		<path style="fill:none;stroke:#000000;stroke-miterlimit:10;" d="M825.039,1488.362c-11.269-1.118-20.469-2.034-32.018-3.188
			c-1.671,9.693-2.967,17.222-4.763,27.629c4.918-3.313,7.166-4.829,14.915-10.05c-7.309,9.67-10.621,14.046-14.094,18.637
			C816.833,1527.694,819.217,1508.129,825.039,1488.362z"/>
		<path style="fill:none;stroke:#000000;stroke-miterlimit:10;" d="M843.588,1423.875c-9.747-1.962-17.264-3.479-27.177-5.477
			c-3.003,11.388-5.828,22.098-9.057,34.349c11.126,0.595,19.601,1.053,28.408,1.522
			C838.747,1442.685,841.286,1432.819,843.588,1423.875z"/>
		<path style="fill:none;stroke:#000000;stroke-miterlimit:10;" d="M769.912,1412.356c-10.68,0.981-17.555,1.612-25.143,2.307
			c-4.115,10.472-7.957,20.237-12.114,30.816c10.395,0,18.465,0,28.473,0C764.061,1434.437,766.594,1424.862,769.912,1412.356z"/>
		<path style="fill:none;stroke:#000000;stroke-miterlimit:10;" d="M687.002,1445.801c5.846-6.958,7.547-17.4,11.935-28.574
			c-11.382,0-18.935,0-27.516,0c-3.098,9.729-5.81,18.239-8.528,26.784C672.23,1448.994,681.65,1452.17,687.002,1445.801z"/>
		<path style="fill:none;stroke:#000000;stroke-miterlimit:10;" d="M649.721,1350.848c-9.384-5.245-14.433-0.321-20.047,4.882
			c-0.767-3.086-1.374-5.513-3.568-14.284c-6.125,14.528-9.943,23.597-14.671,34.801c11.364,0,19.505,0,29.502,0
			C643.792,1367.987,646.813,1359.269,649.721,1350.848z"/>
		<path style="fill:none;stroke:#000000;stroke-miterlimit:10;" d="M790.019,1234.897c-21.997-1.927-25.779,10.591-27.611,28.164
			c9.872-0.464,17.246-0.815,26.297-1.237C789.138,1252.892,789.549,1244.531,790.019,1234.897z"/>
		<path style="fill:none;stroke:#000000;stroke-miterlimit:10;" d="M484.103,1215.493c-12.381,4.193-19.024,13.006-23.002,25.88
			c10.698,2.634,19.785,2.361,26.023-6.72C491.227,1228.683,494.575,1221.755,484.103,1215.493z"/>
		<path style="fill:none;stroke:#000000;stroke-miterlimit:10;" d="M696.666,1377.734c3.069-13.369,8.153-1.707,13.91-4.264
			c2.141-8.896,4.43-18.394,8.456-35.11c-13.214,9.955-21.058,15.86-28.937,21.795
			C692.247,1365.911,693.9,1370.342,696.666,1377.734z"/>
		<path style="fill:none;stroke:#000000;stroke-miterlimit:10;" d="M870.55,1250.71c-10.365-2.391-19.797-4.573-30.638-7.077
			c-0.952,5.221-1.802,9.907-2.765,15.224c10.282,1.445,19.077,2.682,29.139,4.091
			C867.571,1259.261,868.939,1255.336,870.55,1250.71z"/>
		<path style="fill:none;stroke:#000000;stroke-miterlimit:10;" d="M785.505,1357.312c-6.732,3.889-12.548,7.249-18.608,10.746
			c-1.112-3.842-1.861-6.434-3.824-13.226c-3.003,10.002-4.758,15.824-6.631,22.074c10.591,0,18.572,0,27.831,0
			C784.637,1371.15,785.071,1364.252,785.505,1357.312z"/>
		<path style="fill:none;stroke:#000000;stroke-miterlimit:10;" d="M584.033,1271.821c-9.717,16.062-14.094,23.294-19.178,31.702
			c4.383,1.102,7.769,1.954,9.668,2.432C578.366,1292.146,579.918,1286.58,584.033,1271.821z"/>
		<path style="fill:none;stroke:#000000;stroke-miterlimit:10;" d="M574.812,1306.028c-0.092-0.023-0.188-0.047-0.289-0.073
			c-0.084,0.301-0.162,0.583-0.248,0.893C574.459,1306.565,574.63,1306.304,574.812,1306.028z"/>
		<path style="fill:none;stroke:#000000;stroke-miterlimit:10;" d="M595.808,1273.997c-8.213,12.523-12.37,18.868-20.996,32.03
			c0.542,0.137,0.944,0.238,1.175,0.296C593.28,1303.244,591.276,1291.255,595.808,1273.997z"/>
		<path style="fill:none;stroke:#000000;stroke-miterlimit:10;" d="M711.622,1173.122c-17.757-6.672-29.847-11.216-45.011-16.913
			C675.953,1176.963,689.952,1176.583,711.622,1173.122z"/>
		<path style="fill:none;stroke:#000000;stroke-miterlimit:10;" d="M897.531,1443.113c-4.769,3.913-7.303,5.989-10.93,8.962
			c0.963-10.93,1.79-20.279,2.617-29.633c-1.035-0.155-2.075-0.309-3.11-0.464c-3.051,10.151-6.107,20.302-9.64,32.042
			c8.028,2.42,12.679,3.824,18.863,5.691C896.122,1453.728,896.681,1449.535,897.531,1443.113z"/>
		<path style="fill:none;stroke:#000000;stroke-miterlimit:10;" d="M791.131,1198.074c-4.793,5.198-9.432,10.234-16.954,18.388
			c9.045-0.517,13.559-0.773,18.275-1.047C795.056,1209.754,799.195,1205.187,791.131,1198.074z"/>
		<path style="fill:none;stroke:#000000;stroke-miterlimit:10;" d="M519.909,1184.712c-11.602,6.435-18.667,10.354-28.931,16.045
			C504.899,1202.422,512.891,1200.138,519.909,1184.712z"/>
		<path style="fill:none;stroke:#000000;stroke-miterlimit:10;" d="M455.54,1302.602c1.267,0.297,2.527,0.595,3.794,0.886
			c1.284-5.513,2.569-11.025,3.859-16.538c-1.154-0.262-2.307-0.523-3.461-0.785C458.335,1291.642,456.938,1297.119,455.54,1302.602
			z"/>
		<path style="fill:none;stroke:#000000;stroke-miterlimit:10;" d="M604.264,1287.063c-1.207-0.702-2.42-1.403-3.628-2.105
			c-1.201,3.081-2.409,6.161-3.61,9.241c0.963,0.428,1.927,0.85,2.89,1.279C601.362,1292.67,602.813,1289.869,604.264,1287.063z"/>
		<path style="fill:none;stroke:#000000;stroke-miterlimit:10;" d="M685.373,1375.961c0.922-0.042,1.844-0.089,8.873-0.458
			c-6.791-1.802-7.695-2.04-8.605-2.284C685.551,1374.136,685.462,1375.046,685.373,1375.961z"/>
		<path style="fill:none;stroke:#000000;stroke-miterlimit:10;" d="M542.637,1367.303c-0.077,0.369-0.155,0.732-0.232,1.1
			c0.256,0.28,0.505,0.559,3.063,3.443c-0.934-3.556-1.154-4.377-1.398-5.299C543.321,1366.94,542.976,1367.118,542.637,1367.303z"
			/>
		<path style="fill:none;stroke:#000000;stroke-miterlimit:10;" d="M452.466,1283.637c0.601,0.172,1.201,0.345,1.796,0.517
			c-0.315-0.488-0.63-0.981-1.023-1.415C452.989,1283.013,452.739,1283.28,452.466,1283.637z"/>
		<polygon style="fill:none;stroke:#000000;stroke-miterlimit:10;" points="607.987,1233.167 607.309,1232.905 607.434,1233.63
			"/>
		<polygon style="fill:none;stroke:#000000;stroke-miterlimit:10;" points="591.062,1307.597 590.783,1306.907 590.325,1307.496
			"/>
		<polygon style="fill:none;stroke:#000000;stroke-miterlimit:10;" points="535.12,1437.154 535.775,1437.475 535.739,1436.714
			"/>
		<polygon style="fill:none;stroke:#000000;stroke-miterlimit:10;" points="479.583,1423.899 479.607,1423.191 478.959,1423.53
			"/>
		<polygon style="fill:none;stroke:#000000;stroke-miterlimit:10;" points="652.516,1309.042 652.118,1309.672 652.855,1309.708
			"/>
		<polygon style="fill:none;stroke:#000000;stroke-miterlimit:10;" points="663.762,1207.298 662.977,1207.34 663.435,1207.976
			"/>
		<polygon style="fill:none;stroke:#000000;stroke-miterlimit:10;" points="528.989,1272.029 529.852,1272.142 529.519,1271.238
			"/>
		<polygon style="fill:none;stroke:#000000;stroke-miterlimit:10;" points="500.766,1346.667 500.784,1345.924 500.135,1346.281
			"/>
	</g>
</g>
<g  id="Layer_2">
	<g >
		<path class="face" d="M1000.734,563.78c3.342,3.634,6.678,7.267,14.421,15.688c-15.438-2.254-24.828-3.628-34.129-4.983
			c-4.912-8.926-8.706-18.013-20.267-20.992c-8.034,29.336-30.382,26.481-53.634,23.442c1.041,4.21,1.826,7.386,2.289,9.259
			c-5.751,5.203-10.835,9.8-18.59,16.818c-10.252,0.511-24.013,1.201-36.496,1.826c-16.169-22.306-30.763-43.299-57.809-47.705
			c-2.147-38.012,5.953-72.129,39.582-89.351c14.029-7.184,31.286-30.162,50.827-10.229c53.991-1.261,104.123,3.907,145.328,45.796
			c3.396,19.529,22.758,39.54,14.302,66.152c-16.621,5.971-29.449-18.221-46.106-5.412c-15.295-30.019-66.396-48.55-85.967-28.342
			C947.659,535.098,974.908,547.45,1000.734,563.78z M990.851,520.927c-34.509-17.258-69.239-29.205-110.319-17.234
			c-1.885,2.611-5.525,7.654-12.447,17.234C910.973,520.927,950.032,520.927,990.851,520.927z M908.327,572.313
			C902.392,568.079,903.344,568.757,908.327,572.313C904.586,567.461,903.956,566.64,908.327,572.313z"/>
		<path class="face" d="M1295.262,487.91c0.773,5.59,1.564,11.293,2.545,18.37c-55.942-10.092-108.44,10.722-163.181,18.768
			c-8.546-14.064-16.556-27.236-25.607-42.139C1173.543,483.516,1234.759,455.584,1295.262,487.91z"/>
		<path class="face" d="M913.893,840.753c11.662-10.942,15.022-30.442,32.755-33.932c19.785,33.712,62.513-0.928,80.478,34.188
			c6.214-7.749,9.753-12.161,15.384-19.179c41.081,45.594,93.995-1.499,137.229,18.548c7.838-4.085,13.208-6.88,19.464-10.139
			c3.556,5.887,6.149,10.181,9.223,15.271c-3.972,3.747-7.35,6.928-10.014,9.438c-92.574-10.954-183.78-9.777-274.535,4.526
			c-4.246-7.862-7.273-13.452-10.294-19.048L913.893,840.753z"/>
		<path class="face" d="M1299.746,577.101c-23.353-27.349-46.409-45.041-78.688-43.751c-2.581,0.101-5.061,2.682-13.517,7.451
			c37.102,8.349,70.696,13.119,91.878,48.181c-14.677-1.659-26.279-2.973-37.774-4.276c-1.439-6.565-2.623-11.983-4.662-21.29
			c-6.53,7.945-10.633,12.934-16.336,19.874c-16.134-3.663-38.244,7.005-49.822-23.204c-2.046,8.819-3.045,13.136-4.216,18.167
			c-10.996,0-22.199,0-31.595,0c2.718-38.494,23.014-54.395,61.211-50.792C1264.755,532.042,1293.799,546.011,1299.746,577.101z"/>
		<path class="face" d="M1055.427,731.313c1.754,5.358,3.699,11.317,5.679,17.365c6.488,0.678,12.001,1.255,18.566,1.939
			c2.426,3.211,5.203,6.898,9.86,13.065c-9.842,0-16.841,0-25.208,0c-1.689,6.28-3.348,12.464-5.465,20.332
			c-8.623-1.1-16.288-2.081-26.113-3.336c-16.74,3.414-32.951-3.747-45.041-16.948c-7.071-7.725-17.727-16.937-12.191-32.767
			C1002.786,743.784,1028.221,709.679,1055.427,731.313z"/>
		<path class="face" d="M962.954,873.133c51.838,21.539,100.971,19.898,149.372,28.497C1091.78,941.135,1012.67,938.679,962.954,873.133z"/>
		<path class="face" d="M1124.993,761.541c-8.73-13.523-23.537-13.999-37.061-17.894c13.267-16.312,47.021-9.771,56.322,10.966
			C1138.028,756.855,1131.915,759.055,1124.993,761.541z"/>
		<path class="face" style="fill:none;stroke:#000000;stroke-width:0.25;stroke-miterlimit:10;" d="M783.379,543.245
			C784.437,543.573,784.11,543.471,783.379,543.245C784.146,542.817,784.645,542.538,783.379,543.245z"/>
		<path class="face" style="fill:none;stroke:#000000;stroke-width:0.25;stroke-miterlimit:10;" d="M785.769,570.244
			C784.508,571.754,784.152,572.183,785.769,570.244C783.735,571.683,784.181,571.368,785.769,570.244z"/>
	</g>
</g>
</svg>
