<svg version="1.1" id="Layer_1" xmlns="http://www.w3.org/2000/svg" xmlns:xlink="http://www.w3.org/1999/xlink" x="0px" y="0px"
	 width="500%" height="500%" viewBox="0 0 254.333 278.28" style="enable-background:new 0 0 254.333 278.28;"
	 xml:space="preserve">

	  <defs>
		<style type="text/css">
			.blur {
				-webkit-animation: blurer 100s linear forwards;
				-o-animation: blurer 100s linear forwards;
				-moz-animation: blurer 100s linear forwards;
				animation: blurer 100s linear forwards;
				opacity:0;
				
			}

			@-webkit-keyframes blurer {
				from {
					opacity: 0;
				}
				to {
					opacity: 1;
				}
			}
		</style>
	</defs>
<g>
	<path class="blur" d="M115.149,94.804c0.562,0.611,1.123,1.222,2.425,2.638c-2.596-0.379-4.175-0.61-5.739-0.838
		c-0.826-1.501-1.464-3.029-3.408-3.53c-1.351,4.933-5.109,4.453-9.019,3.942c0.175,0.708,0.307,1.242,0.385,1.557
		c-0.967,0.875-1.822,1.648-3.126,2.828c-1.724,0.086-4.038,0.202-6.137,0.307c-2.719-3.751-5.173-7.281-9.721-8.022
		c-0.361-6.392,1.001-12.129,6.656-15.025c2.359-1.208,5.261-5.072,8.547-1.72c9.079-0.212,17.509,0.657,24.438,7.701
		c0.571,3.284,3.827,6.649,2.405,11.124c-2.795,1.004-4.952-3.064-7.753-0.91c-2.572-5.048-11.165-8.164-14.456-4.766
		C106.224,89.981,110.806,92.058,115.149,94.804z M113.487,87.598c-5.803-2.902-11.643-4.911-18.551-2.898
		c-0.317,0.439-0.929,1.287-2.093,2.898C100.055,87.598,106.623,87.598,113.487,87.598z M99.61,96.239
		C98.612,95.527,98.772,95.641,99.61,96.239C98.981,95.423,98.875,95.285,99.61,96.239z"/>
	<path class="blur" d="M164.676,82.046c0.13,0.94,0.263,1.899,0.428,3.089c-9.407-1.697-18.235,1.803-27.44,3.156
		c-1.437-2.365-2.784-4.58-4.306-7.086C144.208,81.307,154.502,76.61,164.676,82.046z"/>
	<path class="blur" d="M100.546,141.379c1.961-1.84,2.526-5.119,5.508-5.706c3.327,5.669,10.512-0.156,13.533,5.749
		c1.045-1.303,1.64-2.045,2.587-3.225c6.908,7.667,15.806-0.252,23.076,3.119c1.318-0.687,2.221-1.157,3.273-1.705
		c0.598,0.99,1.034,1.712,1.551,2.568c-0.668,0.63-1.236,1.165-1.684,1.587c-15.567-1.842-30.904-1.644-46.165,0.761
		c-0.714-1.322-1.223-2.262-1.731-3.203L100.546,141.379z"/>
	<path class="blur" d="M165.43,97.044c-3.927-4.599-7.804-7.574-13.232-7.357c-0.434,0.017-0.851,0.451-2.273,1.253
		c6.239,1.404,11.888,2.206,15.45,8.102c-2.468-0.279-4.419-0.5-6.352-0.719c-0.242-1.104-0.441-2.015-0.784-3.58
		c-1.098,1.336-1.788,2.175-2.747,3.342c-2.713-0.616-6.431,1.178-8.378-3.902c-0.344,1.483-0.512,2.209-0.709,3.055
		c-1.849,0-3.733,0-5.313,0c0.457-6.473,3.87-9.147,10.293-8.541C159.546,89.467,164.43,91.816,165.43,97.044z"/>
	<path class="blur" d="M124.346,122.976c0.295,0.901,0.622,1.903,0.955,2.92c1.091,0.114,2.018,0.211,3.122,0.326
		c0.408,0.54,0.875,1.16,1.658,2.197c-1.655,0-2.832,0-4.239,0c-0.284,1.056-0.563,2.096-0.919,3.419
		c-1.45-0.185-2.739-0.35-4.391-0.561c-2.815,0.574-5.541-0.63-7.574-2.85c-1.189-1.299-2.981-2.848-2.05-5.51
		C115.494,125.073,119.771,119.338,124.346,122.976z"/>
	<path class="blur" d="M108.796,146.824c8.717,3.622,16.979,3.346,25.118,4.792C130.459,158.259,117.156,157.846,108.796,146.824z"/>
	<path class="blur" d="M136.044,128.059c-1.468-2.274-3.958-2.354-6.232-3.009c2.231-2.743,7.907-1.643,9.471,1.844
		C138.236,127.271,137.208,127.641,136.044,128.059z"/>
	<path class="blur" style="fill:none;stroke:#000000;stroke-width:0.25;stroke-miterlimit:10;" d="M78.599,91.351
		C78.777,91.406,78.722,91.389,78.599,91.351C78.728,91.279,78.812,91.232,78.599,91.351z"/>
	<path class="blur" style="fill:none;stroke:#000000;stroke-width:0.25;stroke-miterlimit:10;" d="M79.001,95.891
		C78.789,96.145,78.729,96.217,79.001,95.891C78.659,96.133,78.734,96.08,79.001,95.891z"/>
</g>
</svg>
