
<svg version="1.1" id="logo" xmlns="http://www.w3.org/2000/svg" xmlns:xlink="http://www.w3.org/1999/xlink" x="0px" y="0px"
	 width="469.5px" height="121.5px" viewBox="0 0 469.5 121.5" style="enable-background:new 0 0 469.5 121.5;" xml:space="preserve"
	>

	<defs>
		<style type="text/css">
			#t,#v,#k1,#k2,#l,#i {
				stroke-dasharray: 800;
				stroke-dashoffset: 0;
				-webkit-animation: dash 2s linear forwards;
				-o-animation: dash 2s linear forwards;
				-moz-animation: dash 2s linear forwards;
				animation: dash 2s linear forwards;
				fill: none;
			}

			@-webkit-keyframes dash {
				from {
					stroke-dashoffset: 800;
				}
				to {
					stroke-dashoffset: 0;
				}
			}

			#whole {
				fill: #000;
				opacity: 0;
				-webkit-animation: filling 2s linear forwards;
				-o-animation: filling 2s linear forwards;
				-moz-animation: filling 2s linear forwards;
				animation: filling 2s linear forwards;
				animation-delay: 1.5s;
			}
			
			@-webkit-keyframes filling {
				from {
					opacity: 0;
				}
				to {
					opacity: 1;
				}
			}


		</style>
	</defs>
<g>
	<path id="t" style="stroke:#000000;stroke-miterlimit:10;" d="M79.4,0.839c0,39.692,0,79.126,0,118.873
		c-6.473,0-12.731,0-19.723,0c0-32.741,0-65.595,0-99.063c-20.295,0-39.874,0-59.677,0c0-6.895,0-13.171,0-19.81
		C26.307,0.839,52.551,0.839,79.4,0.839z"/>
	<path id="v" style="stroke:#000000;stroke-miterlimit:10;" d="M99.838,0.14c6.488,0,11.837,0.31,17.131-0.101
		c4-0.31,5.865,1.253,7.559,4.702c10.411,21.201,21.052,42.289,31.626,63.41c0.948,1.895,1.959,3.758,3.315,6.35
		c1.05-1.857,1.786-3.04,2.411-4.279c11.085-21.983,22.23-43.936,33.151-66c1.568-3.169,3.351-4.343,6.841-4.145
		c5.439,0.307,10.908,0.081,17.472,0.081c-20.024,40.061-39.651,79.33-59.757,119.555C139.536,79.587,119.897,40.284,99.838,0.14z"/>
	<path id="k1" style="stroke:#000000;stroke-miterlimit:10;" d="M239.728,0.424c6.773,0,13.044,0,19.575,0
		c0,39.668,0,79.058,0,118.861c-6.478,0-12.846,0-19.575,0C239.728,79.741,239.728,40.24,239.728,0.424z"/>
	<path id="k2" style="stroke:#000000;stroke-miterlimit:10;" d="M304.993,75.271c-0.975-2.005-8.496-15.496-15.43-17.669
		c6.934-2.006,14.455-14.454,15.43-16.304c0,0,15.811-26.919,24.24-41.271c-7.493,0-13.965-0.099-20.427,0.088
		c-1.217,0.035-2.921,0.912-3.52,1.901c-10.964,18.122-33.363,55.482-33.305,55.587c-0.058,0.097,22.333,40.587,33.305,60.242
		c0.598,1.072,2.303,2.022,3.52,2.06c6.463,0.202,12.934,0.095,20.427,0.095C320.804,104.444,304.993,75.271,304.993,75.271z"/>
	<path id="l" style="stroke:#000000;stroke-miterlimit:10;" d="M349.671,119.713c0-39.692,0-79.126,0-118.873
		c6.473,0,12.731,0,19.723,0c0,32.741,0,65.595,0,99.063c20.295,0,39.874,0,59.677,0c0,6.895,0,13.171,0,19.81
		C402.764,119.713,376.519,119.713,349.671,119.713z"/>
	<path id="i" style="stroke:#000000;stroke-miterlimit:10;" d="M449.473,0.851c6.773,0,13.044,0,19.575,0
		c0,39.668,0,79.058,0,118.861c-6.478,0-12.846,0-19.575,0C449.473,80.169,449.473,40.668,449.473,0.851z"/>
 </g>
 <g id="whole">
	<path  style="stroke:#000000;stroke-miterlimit:10;" d="M79.4,0.839c0,39.692,0,79.126,0,118.873
		c-6.473,0-12.731,0-19.723,0c0-32.741,0-65.595,0-99.063c-20.295,0-39.874,0-59.677,0c0-6.895,0-13.171,0-19.81
		C26.307,0.839,52.551,0.839,79.4,0.839z"/>
	<path  style="stroke:#000000;stroke-miterlimit:10;" d="M99.838,0.14c6.488,0,11.837,0.31,17.131-0.101
		c4-0.31,5.865,1.253,7.559,4.702c10.411,21.201,21.052,42.289,31.626,63.41c0.948,1.895,1.959,3.758,3.315,6.35
		c1.05-1.857,1.786-3.04,2.411-4.279c11.085-21.983,22.23-43.936,33.151-66c1.568-3.169,3.351-4.343,6.841-4.145
		c5.439,0.307,10.908,0.081,17.472,0.081c-20.024,40.061-39.651,79.33-59.757,119.555C139.536,79.587,119.897,40.284,99.838,0.14z"/>
	<path style="stroke:#000000;stroke-miterlimit:10;" d="M239.728,0.424c6.773,0,13.044,0,19.575,0
		c0,39.668,0,79.058,0,118.861c-6.478,0-12.846,0-19.575,0C239.728,79.741,239.728,40.24,239.728,0.424z"/>
	<path style="stroke:#000000;stroke-miterlimit:10;" d="M304.993,75.271c-0.975-2.005-8.496-15.496-15.43-17.669
		c6.934-2.006,14.455-14.454,15.43-16.304c0,0,15.811-26.919,24.24-41.271c-7.493,0-13.965-0.099-20.427,0.088
		c-1.217,0.035-2.921,0.912-3.52,1.901c-10.964,18.122-33.363,55.482-33.305,55.587c-0.058,0.097,22.333,40.587,33.305,60.242
		c0.598,1.072,2.303,2.022,3.52,2.06c6.463,0.202,12.934,0.095,20.427,0.095C320.804,104.444,304.993,75.271,304.993,75.271z"/>
	<path  style="stroke:#000000;stroke-miterlimit:10;" d="M349.671,119.713c0-39.692,0-79.126,0-118.873
		c6.473,0,12.731,0,19.723,0c0,32.741,0,65.595,0,99.063c20.295,0,39.874,0,59.677,0c0,6.895,0,13.171,0,19.81
		C402.764,119.713,376.519,119.713,349.671,119.713z"/>
	<path  style="stroke:#000000;stroke-miterlimit:10;" d="M449.473,0.851c6.773,0,13.044,0,19.575,0
		c0,39.668,0,79.058,0,118.861c-6.478,0-12.846,0-19.575,0C449.473,80.169,449.473,40.668,449.473,0.851z"/>
 </g>
</svg>
